<?xml version="1.0" encoding="UTF-8"?><svg id="Ebene_2" xmlns="http://www.w3.org/2000/svg" viewBox="0 0 85.04 97"><defs><style>.cls-1{fill:#005a43;}</style></defs><g id="Ebene_1-2"><path class="cls-1" d="M40.84,97h3.35l.15-.43c.17-.46,16.56-46.37,25.74-65.67,3.27-6.87,13.36-27.05,14.69-29.79.05-.09.34-.76.24-.84C84.93.21,84.15,0,84.09,0c-.06,0-.18.04-.41.25-1.31,1.2-8.57,8.22-22.66,36.88l-.82,1.67c-2.81,5.7-5.71,11.6-8.07,17.64l-5.7,14.59c-1.33,3.37-2.73,7.28-3.92,10.92h0c-1.18-3.65-2.58-7.55-3.92-10.92l-5.7-14.59c-2.36-6.04-5.26-11.93-8.07-17.64l-.82-1.67C9.94,8.47,2.67,1.45,1.36.25,1.14.04,1.01,0,.95,0,.89,0,.11.21.02.28c-.1.07.19.74.24.84,1.33,2.74,11.43,22.92,14.7,29.79,9.18,19.3,25.57,65.21,25.74,65.67l.15.43Z"/><path class="cls-1" d="M26.88,94.2c-.27-1.32-1.58-4.28-1.88-5.05l-2.64-6.65C10.82,54.01,5.84,47.29,4.95,46.15c-.15-.2-.23-.23-.26-.23-.03,0-.45.28-.49.35-.05.08.2.75.24.84,1.1,2.72,9.32,22.77,12.03,29.61,1.63,4.12,3.75,8.98,6.18,13.02,4.5,7.49,4.3,4.74,4.24,4.46Z"/><path class="cls-1" d="M58.16,94.2c.27-1.32,1.58-4.28,1.88-5.05l2.64-6.65c11.54-28.49,16.53-35.2,17.42-36.35.15-.2.23-.23.26-.23.03,0,.45.28.49.35.05.08-.2.75-.24.84-1.1,2.72-9.32,22.77-12.03,29.61-1.63,4.12-3.75,8.98-6.18,13.02-4.5,7.49-4.3,4.74-4.24,4.46Z"/></g></svg>