<?xml version="1.0" encoding="UTF-8"?><svg id="Ebene_2" xmlns="http://www.w3.org/2000/svg" viewBox="0 0 283.46 132.58"><defs><style>.cls-1{fill:#005a43;}</style></defs><g id="Ebene_1-2"><path class="cls-1" d="M181.6,100.37h3.47l.16-.44c.17-.48,17.13-47.98,26.63-67.95,3.38-7.11,13.83-27.99,15.21-30.83.05-.1.35-.79.24-.86C227.21.22,226.4,0,226.34,0c-.06,0-.19.05-.42.26-1.35,1.24-8.87,8.5-23.44,38.16l-.85,1.73c-2.9,5.9-5.91,12-8.35,18.25l-5.9,15.1c-1.38,3.49-2.83,7.53-4.05,11.3h0c-1.22-3.77-2.67-7.81-4.05-11.3l-5.9-15.1c-2.44-6.25-5.44-12.35-8.35-18.25l-.85-1.73C149.61,8.76,142.1,1.5,140.74.26,140.51.05,140.38,0,140.32,0c-.06,0-.87.22-.96.29-.1.07.2.77.24.86,1.38,2.83,11.82,23.71,15.21,30.83,9.5,19.97,26.46,67.47,26.63,67.95l.16.44Z"/><polygon class="cls-1" points="30.7 92.47 7.82 92.47 7.82 47.58 0 47.58 0 99.42 30.7 99.42 30.7 92.47"/><path class="cls-1" d="M150.85,100.37c.29-4.92.27-15.03.27-15.03,0-27.04-10.03-43.89-10.13-44.06l-.24-.4-4.65.92.33.76c.07.17,7.48,17.47,7.9,38.26l.1,4.93c-3.34-4.12-8.41-9.82-10.96-12.7l-22.76-25.48h-5.47v51.84h7.82v-27.27c0-3.74,0-7.6-.11-11.67,3.32,3.98,7.34,8.75,10.9,12.67l24.55,27.22h2.46Z"/><path class="cls-1" d="M230.35,42.54l.29-.74-4.63-.91-.24.4c-.1.17-10.13,17.02-10.13,44.06v1.67c-.01,3.4.25,12.4.25,12.4h7.59l-.02-.69c0-.14-.47-14.31-.4-17.89.41-20.8,7.22-38.13,7.29-38.3Z"/><path class="cls-1" d="M64.44,46.63c-13.4,0-27.27,10.02-27.27,26.79s13.86,26.87,27.27,26.87,27.27-10.05,27.27-26.87-13.86-26.79-27.27-26.79ZM64.44,93.42c-9.39,0-19.37-6.95-19.37-19.84s9.98-19.84,19.37-19.84,19.37,7.42,19.37,19.84-9.85,19.84-19.37,19.84Z"/><path class="cls-1" d="M261.78,46.87h-3.26l-21.69,52.55h7.85l5.62-13.62h19.53l5.54,13.62h8.09l-21.69-52.55ZM252.98,79.25l5.33-13.02c.53-1.32,1.11-3.01,1.75-5.13.54,1.83,1.11,3.64,1.77,5.13l5.32,13.02h-14.17Z"/><polygon class="cls-1" points="22.29 117.14 19.27 117.14 19.27 129.64 27.01 129.64 27.01 127.15 22.29 127.15 22.29 117.14"/><rect class="cls-1" x="29.99" y="117.14" width="3.04" height="12.5"/><path class="cls-1" d="M42.6,122.61c-.31.84-.59,1.82-.82,2.76h-.04c-.24-.94-.53-1.94-.82-2.76l-1.94-5.47h-3.12l4.57,12.58h2.49l4.55-12.58h-2.94l-1.92,5.47Z"/><polygon class="cls-1" points="53.22 124.62 56.67 124.62 56.67 122.14 53.22 122.14 53.22 119.63 57.42 119.63 57.42 117.14 50.24 117.14 50.24 129.64 58 129.64 58 127.15 53.22 127.15 53.22 124.62"/><polygon class="cls-1" points="70.48 117.14 67.46 117.14 67.46 129.64 75.2 129.64 75.2 127.15 70.48 127.15 70.48 117.14"/><path class="cls-1" d="M84,116.83c-3.47,0-6.74,2.55-6.74,6.54s3.27,6.56,6.74,6.56,6.72-2.53,6.72-6.56-3.27-6.54-6.72-6.54ZM84,127.29c-1.88,0-3.64-1.53-3.64-3.88s1.76-3.86,3.64-3.86,3.65,1.55,3.65,3.86-1.8,3.88-3.65,3.88Z"/><path class="cls-1" d="M102.96,121.86c0,.76.02,1.59.06,2.33l-.04.04c-.57-.75-1.45-1.74-2.08-2.41l-4.29-4.68h-2.45v12.5h2.9v-5.33c0-.79,0-1.74-.04-2.63l.04-.02c.67.84,1.57,1.86,2.37,2.74l4.92,5.37h1.53v-12.64h-2.92v4.72Z"/><path class="cls-1" d="M115.92,125.02h2.17v1.98c-.43.26-.98.37-1.72.37-2.23,0-4.04-1.53-4.04-3.88,0-2.47,1.88-4,4.15-4,1.25,0,2.43.37,3.19.88l.57-2.53c-.82-.55-2.33-1.02-4.07-1.02-3.29,0-6.86,2.25-6.86,6.57s3.49,6.54,6.94,6.54c2.04,0,3.57-.45,4.62-1.29v-5.96h-4.96v2.33Z"/><polygon class="cls-1" points="127.53 124.62 130.98 124.62 130.98 122.14 127.53 122.14 127.53 119.63 131.72 119.63 131.72 117.14 124.55 117.14 124.55 129.64 132.31 129.64 132.31 127.15 127.53 127.15 127.53 124.62"/><path class="cls-1" d="M144.15,120.94c0-2.35-1.88-3.8-4.04-3.8h-4.55v12.5h3v-5.07h.96l2.84,5.07h3.39l-3.37-5.64c1.08-.63,1.76-1.68,1.76-3.06ZM139.68,122.39h-1.12v-2.78h1.12c.78,0,1.57.43,1.57,1.39s-.78,1.39-1.57,1.39Z"/><polygon class="cls-1" points="164.09 117.14 161.07 117.14 161.07 129.64 168.81 129.64 168.81 127.15 164.09 127.15 164.09 117.14"/><rect class="cls-1" x="171.8" y="117.14" width="3.04" height="12.5"/><path class="cls-1" d="M184.4,122.61c-.31.84-.59,1.82-.82,2.76h-.04c-.23-.94-.53-1.94-.82-2.76l-1.94-5.47h-3.12l4.56,12.58h2.49l4.55-12.58h-2.94l-1.92,5.47Z"/><polygon class="cls-1" points="195.03 124.62 198.48 124.62 198.48 122.14 195.03 122.14 195.03 119.63 199.22 119.63 199.22 117.14 192.05 117.14 192.05 129.64 199.81 129.64 199.81 127.15 195.03 127.15 195.03 124.62"/><path class="cls-1" d="M221.61,122.2c-.24.71-.51,1.6-.67,2.51h-.04c-.19-.9-.45-1.8-.67-2.51l-1.65-5.06h-2.59l-1.67,5.06c-.25.78-.49,1.57-.67,2.51h-.04c-.18-.94-.43-1.76-.69-2.51l-1.61-5.06h-2.98l4.17,12.58h1.9l1.84-5.53c.26-.82.53-1.69.82-2.78h.04c.27,1.1.55,1.96.82,2.78l1.8,5.53h1.96l4.15-12.58h-2.63l-1.65,5.06Z"/><polygon class="cls-1" points="231.61 124.62 235.06 124.62 235.06 122.14 231.61 122.14 231.61 119.63 235.81 119.63 235.81 117.14 228.63 117.14 228.63 129.64 236.39 129.64 236.39 127.15 231.61 127.15 231.61 124.62"/><polygon class="cls-1" points="242.67 117.14 239.65 117.14 239.65 129.64 247.39 129.64 247.39 127.15 242.67 127.15 242.67 117.14"/><polygon class="cls-1" points="253.35 117.14 250.34 117.14 250.34 129.64 258.08 129.64 258.08 127.15 253.35 127.15 253.35 117.14"/><path class="cls-1" d="M262.57,126.85c-.81,0-1.46.65-1.46,1.46s.65,1.46,1.46,1.46,1.46-.65,1.46-1.46-.65-1.46-1.46-1.46Z"/><path class="cls-1" d="M150.09,126.86c-.81,0-1.46.65-1.46,1.46,0,.63.4,1.16.96,1.36-.12.86-.63,1.98-1.29,2.74l.9.16c1.04-.96,2.09-2.57,2.32-3.8.02-.1.04-.28.02-.59-.06-.77-.67-1.33-1.44-1.33Z"/></g></svg>