<?xml version="1.0" encoding="UTF-8"?><svg id="Ebene_2" xmlns="http://www.w3.org/2000/svg" viewBox="0 0 283.46 100.37"><defs><style>.cls-1{fill:#005a43;}</style></defs><g id="Ebene_1-2"><path class="cls-1" d="M7.82,92.47h22.88v6.95H0v-51.84h7.82v44.89ZM91.7,73.42c0,16.82-13.86,26.87-27.27,26.87s-27.27-10.05-27.27-26.87,13.86-26.79,27.27-26.79,27.27,10.02,27.27,26.79ZM83.8,73.58c0-12.42-9.85-19.84-19.37-19.84s-19.37,6.95-19.37,19.84,9.98,19.84,19.37,19.84,19.37-7.42,19.37-19.84ZM151.12,85.34c0-27.05-10.03-43.89-10.13-44.06l-.24-.4-4.65.92.33.76c.07.17,7.48,17.47,7.9,38.26l.1,4.93c-3.34-4.12-8.41-9.82-10.96-12.7l-22.76-25.48h-5.47v51.84h7.82v-27.27c0-3.74,0-7.6-.11-11.67,3.32,3.98,7.34,8.75,10.9,12.67l24.55,27.22h2.46c.29-4.92.27-15.03.27-15.03ZM283.46,99.42h-8.09l-5.54-13.62h-19.53l-5.62,13.62h-7.85l21.69-52.55h3.26l21.69,52.55ZM267.15,79.25l-5.32-13.02c-.66-1.49-1.22-3.3-1.77-5.13-.64,2.12-1.22,3.8-1.75,5.13l-5.33,13.02h14.17ZM225.78,41.28c-.1.17-10.13,17.02-10.13,44.06v1.67c-.01,3.4.25,12.4.25,12.4h7.59l-.02-.69c0-.14-.47-14.31-.4-17.89.41-20.8,7.22-38.13,7.29-38.3l.29-.74-4.63-.91-.24.4ZM183.33,100.37h1.73l.16-.44c.17-.48,17.13-47.98,26.63-67.95,3.38-7.11,13.83-27.99,15.21-30.83.05-.1.35-.79.24-.87-.09-.07-.9-.29-.96-.29s-.19.05-.42.26c-1.35,1.24-8.87,8.5-23.44,38.16l-.85,1.73c-2.9,5.9-5.91,12-8.35,18.25l-5.9,15.1c-1.38,3.49-2.83,7.53-4.05,11.3h0c-1.22-3.77-2.67-7.81-4.05-11.3l-5.9-15.1c-2.44-6.25-5.44-12.35-8.35-18.25l-.85-1.73C149.61,8.76,142.1,1.5,140.74.26,140.51.05,140.38,0,140.32,0s-.87.22-.96.29c-.1.07.2.77.24.87,1.38,2.83,11.82,23.72,15.21,30.83,9.5,19.97,26.46,67.47,26.63,67.95l.16.44h1.73Z"/></g></svg>